<svg width="24" height="24" viewBox="0 0 24 24" fill="none" xmlns="http://www.w3.org/2000/svg">
<path d="M11.2791 0.00767984C8.54568 0.205914 6.07359 1.22412 4.07009 2.98419C1.82328 4.95452 0.411514 7.66672 0.0540676 10.7033C-0.0180225 11.322 -0.0180225 12.6886 0.0540676 13.2954C0.243304 14.8662 0.642803 16.1818 1.35169 17.5514C2.91665 20.582 5.78223 22.8436 9.09537 23.6576C10.1647 23.9189 10.8556 24 12 24C13.1444 24 13.8353 23.9189 14.9046 23.6576C18.2178 22.8436 21.0834 20.582 22.6483 17.5514C23.3572 16.1818 23.7567 14.8662 23.9459 13.2954C24.018 12.6886 24.018 11.319 23.9459 10.7123C23.6546 8.29746 22.7715 6.20099 21.2576 4.3448C20.9272 3.93932 20.0651 3.0773 19.6596 2.74691C17.8183 1.24814 15.6616 0.332063 13.3367 0.0647472C12.9342 0.019694 11.6305 -0.0163485 11.2791 0.00767984ZM12.3274 5.29092C12.8501 5.41706 13.2676 5.79551 13.4478 6.32113L13.5169 6.52237V11.9888C13.5169 17.251 13.5139 17.4613 13.4598 17.6205C13.2315 18.2903 12.6638 18.7108 11.985 18.7138C11.4053 18.7138 10.8946 18.4044 10.6183 17.8878C10.429 17.5304 10.438 17.8577 10.438 12.0008C10.438 8.51372 10.4501 6.60947 10.4681 6.50435C10.5191 6.23103 10.6874 5.92466 10.8976 5.71141C11.2851 5.32396 11.8108 5.17077 12.3274 5.29092ZM17.566 7.63368C17.8363 7.70276 18.0345 7.8199 18.2508 8.03616C18.4611 8.2464 18.5692 8.42361 18.6593 8.71496C18.7104 8.88316 18.7134 9.04535 18.7134 11.0878C18.7134 13.1302 18.7104 13.2924 18.6593 13.4606C18.5722 13.7399 18.4641 13.9231 18.2718 14.1243C17.9715 14.4367 17.62 14.5869 17.1815 14.5869C16.8931 14.5869 16.6949 14.5388 16.4516 14.4067C16.2353 14.2925 15.9439 13.9982 15.8358 13.7909C15.6586 13.4395 15.6646 13.5146 15.6646 11.0848C15.6646 8.94623 15.6676 8.85012 15.7247 8.6639C15.8748 8.17132 16.2924 7.76584 16.785 7.63368C16.9922 7.57962 17.3527 7.57661 17.566 7.63368ZM7.17297 13.3104C7.72265 13.4546 8.17322 13.9261 8.29036 14.4878C8.32641 14.647 8.33542 14.9834 8.33542 16.0166C8.33542 17.248 8.33242 17.3562 8.27534 17.5784C8.1582 18.035 7.88185 18.3714 7.44931 18.5846C7.20901 18.7047 7.16696 18.7138 6.90263 18.7258C6.73442 18.7348 6.54218 18.7228 6.44606 18.7017C5.86033 18.5726 5.36471 18.032 5.27159 17.4192C5.25056 17.2811 5.24155 16.7344 5.24756 15.8574L5.25657 14.5118L5.33467 14.3106C5.4398 14.0402 5.57497 13.836 5.77021 13.6558C5.94143 13.5026 6.22678 13.3464 6.43104 13.2984C6.61427 13.2563 6.98673 13.2623 7.17297 13.3104Z" fill="black"/>
</svg>